<?xml version="1.0" encoding="UTF-8" standalone="no"?><!DOCTYPE svg PUBLIC "-//W3C//DTD SVG 1.1//EN" "http://www.w3.org/Graphics/SVG/1.1/DTD/svg11.dtd"><svg width="100%" height="100%" viewBox="0 0 446 433" version="1.1" xmlns="http://www.w3.org/2000/svg" xmlns:xlink="http://www.w3.org/1999/xlink" xml:space="preserve" xmlns:serif="http://www.serif.com/" style="fill-rule:evenodd;clip-rule:evenodd;stroke-linejoin:round;stroke-miterlimit:2;"><g id="Background"><g transform="matrix(138.84143,0,0,138.84143,437.4987,415.064876)"></g><text x="8.975px" y="415.065px" style="font-family:'ArialRoundedMTBold', 'Arial Rounded MT Bold', sans-serif;font-size:138.841px;fill:#5e5e5e;">w<tspan x="120.021px 202.526px 281.573px 354.994px " y="415.065px 415.065px 415.065px 415.065px ">eave</tspan></text><path d="M425.993,21.173c12.23,20.915 3.442,27.344 -21.189,65.525c-4.475,6.936 -4.538,6.831 -56.995,86.01c-1.722,2.599 -0.183,3.107 62.06,109.564c2.158,3.691 18.178,23.702 4.307,36.887c-5.609,5.331 -23.437,10.902 -35.307,-7.917c-4.895,-7.761 -4.349,-7.967 -57.963,-98.979c-3.686,-6.258 -4.673,-8.661 -5.92,-6.483c-47.099,82.261 -54.992,81.479 -60.776,85.269c-18.224,11.94 -62.182,23.348 -92.484,-28.685c-21.727,-37.309 -22.002,-37.088 -31.673,-54.595c-2.591,-4.69 -4.605,-4.821 -2.037,-9.53c16.946,-31.077 21.323,-38.137 22.552,-37.971c2.214,0.299 43.68,78.833 53.065,88.097c11.842,11.689 30.891,11.094 43.502,-10.097c24.634,-41.392 110.386,-182.323 124.96,-208.009c19.835,-34.956 45.929,-19.971 53.896,-9.085Z" style="fill:url(#_Linear1);"/><path d="M31.003,317.872c-11.081,-14.928 -0.059,-23.087 31.099,-74.615c11.631,-19.236 36.953,-59.286 36.881,-61.776c-0.086,-2.977 -73.987,-115.107 -80.746,-125.805c-21.577,-34.149 19.279,-60.461 45.118,-38.996c12.666,10.522 39.938,63.882 55.512,89.605c2.593,4.283 2.199,-1.915 33.958,-52.563c21.793,-34.754 59.764,-45.324 90.672,-33.21c26.346,10.326 34.911,26.301 64.759,82.11c0.746,1.395 1.031,1.818 -8.392,18.098c-12.833,22.171 -12.619,24.06 -14.399,22.837c-0.593,-0.407 -29.622,-53.924 -35.254,-63.879c-23.347,-41.265 -52.819,-19.274 -60.32,-8.869c-7.489,10.388 -76.532,122.044 -76.779,122.48c-2.231,3.935 10.043,19.356 10.159,23.227c0.078,2.614 -49.386,81.171 -56.21,92.719c-14.288,24.178 -31.957,13.737 -36.057,8.639Z" style="fill:#3999fa;fill-opacity:1;"/></g><defs><linearGradient id="_Linear1" x1="0" y1="0" x2="1" y2="0" gradientUnits="userSpaceOnUse" gradientTransform="matrix(284.465064,-0.360486,0.360486,284.465064,147,166.727674)"><stop offset="0" style="stop-color:#52a8ff;stop-opacity:1"/><stop offset="0.49" style="stop-color:#147be4;stop-opacity:1"/><stop offset="1" style="stop-color:#006ddb;stop-opacity:1"/></linearGradient></defs></svg>